<?xml version="1.0" standalone="no"?>
<!DOCTYPE svg PUBLIC "-//W3C//DTD SVG 20010904//EN"
 "http://www.w3.org/TR/2001/REC-SVG-20010904/DTD/svg10.dtd">
<svg version="1.0" xmlns="http://www.w3.org/2000/svg"
 width="260.000000pt" height="260.000000pt" viewBox="0 0 260.000000 260.000000"
 preserveAspectRatio="xMidYMid meet">
<metadata>
Created by potrace 1.11, written by Peter Selinger 2001-2013
</metadata>
<g transform="translate(0.000000,260.000000) scale(0.100000,-0.100000)"
fill="#000000" stroke="none">
<path d="M1155 2535 c-5 -16 -9 -124 -9 -240 -1 -240 8 -288 61 -341 18 -18
33 -41 33 -50 0 -9 21 -78 47 -153 l47 -136 0 -145 c0 -101 -4 -154 -14 -175
l-13 -30 -8 60 c-18 148 -86 253 -236 367 -133 101 -212 196 -259 310 -10 27
-22 48 -26 48 -11 0 -21 -81 -20 -155 3 -180 103 -339 292 -462 146 -95 200
-162 215 -267 l7 -47 34 68 c45 93 98 151 212 230 127 89 209 167 255 244 27
46 36 56 31 34 -26 -114 -111 -216 -267 -318 -127 -84 -177 -131 -208 -196
-25 -53 -35 -142 -24 -198 l8 -38 7 51 c16 110 84 192 239 283 159 93 239 184
282 320 22 71 28 218 11 276 -9 29 -9 29 -20 -23 -26 -118 -93 -205 -255 -330
-98 -76 -147 -123 -194 -187 l-22 -30 21 65 c25 82 35 229 19 312 -7 35 -24
102 -38 150 l-26 87 26 31 c39 46 50 101 50 240 0 129 -19 333 -34 360 -5 8
-9 -68 -9 -175 0 -181 -6 -225 -27 -212 -6 4 -12 90 -16 193 -3 114 -9 190
-16 197 -8 8 -11 -43 -11 -185 0 -189 -6 -227 -30 -202 -5 5 -11 81 -15 169
-7 189 -13 235 -26 214 -5 -8 -9 -99 -9 -202 0 -146 -3 -188 -12 -185 -17 6
-26 76 -28 208 -1 58 -5 125 -9 150 -8 45 -8 45 -16 15z m223 -520 c-8 -26
-24 -47 -46 -60 -32 -20 -32 -21 -30 -87 2 -36 0 -64 -3 -62 -4 2 -13 34 -20
70 -7 36 -19 68 -26 71 -8 3 -18 14 -24 25 -11 20 -10 20 12 4 13 -9 32 -16
42 -16 27 0 75 55 89 103 11 36 13 38 16 17 2 -14 -3 -43 -10 -65z m-464 -273
c26 -35 82 -92 125 -127 71 -60 121 -117 167 -190 12 -19 -16 2 -75 55 -195
176 -245 231 -284 310 -49 102 -60 156 -15 75 18 -34 55 -89 82 -123z"/>
<path d="M1420 2418 c0 -37 11 -44 90 -57 236 -41 447 -154 620 -331 156 -159
257 -348 300 -561 21 -104 29 -272 16 -369 -13 -100 16 -90 -277 -90 l-260 0
-26 30 c-20 25 -32 30 -67 30 -23 0 -50 -6 -60 -13 -15 -11 -23 -9 -54 20 -71
65 -184 78 -279 32 -57 -27 -73 -61 -72 -146 0 -97 16 -137 54 -141 17 -2 54
-10 82 -18 43 -12 54 -19 59 -41 8 -30 -3 -417 -12 -476 -4 -20 -10 -37 -14
-37 -13 0 -20 91 -20 275 l0 182 -31 7 c-17 3 -42 6 -55 6 l-24 0 0 -182 c0
-188 -7 -288 -20 -288 -13 0 -19 60 -26 273 l-7 207 -52 0 -52 0 -5 -223 c-3
-122 -10 -233 -15 -246 l-10 -25 -7 25 c-4 13 -10 122 -13 242 l-6 217 -26 0
c-71 -1 -67 10 -74 -218 -3 -114 -10 -220 -15 -237 -17 -60 -25 9 -30 262 l-4
251 30 16 c16 8 58 20 92 25 55 9 79 22 80 41 0 3 -7 37 -15 75 -8 39 -15 87
-15 107 0 46 -19 58 -101 65 -67 7 -131 -13 -180 -54 -23 -19 -33 -23 -42 -14
-19 19 -82 13 -102 -9 -17 -19 -31 -20 -311 -20 -331 0 -297 -10 -310 90 -13
97 -5 265 16 369 43 213 145 402 300 561 154 156 344 266 537 312 49 11 94 22
101 24 6 2 12 17 12 35 0 31 0 31 -42 24 -92 -16 -218 -58 -323 -110 -653
-321 -874 -1130 -472 -1732 178 -268 452 -451 777 -520 117 -24 363 -24 480 0
598 127 1010 651 976 1242 -31 553 -425 1003 -975 1115 -123 25 -121 25 -121
-2z m-333 -1454 c3 -8 1 -20 -5 -26 -15 -15 -43 8 -35 28 7 19 32 18 40 -2z
m-409 -63 c8 -4 12 -19 10 -32 -2 -18 -9 -24 -28 -24 -28 0 -39 27 -20 50 14
17 20 18 38 6z m1211 -5 c23 -28 -17 -68 -45 -45 -15 12 -19 41 -7 52 11 12
40 8 52 -7z m-264 -21 c0 -30 -39 -27 -43 3 -3 20 0 23 20 20 15 -2 23 -10 23
-23z m-695 0 c15 -18 5 -35 -21 -35 -12 0 -19 7 -19 18 0 33 20 42 40 17z
m1290 -5 c0 -13 -7 -20 -20 -20 -13 0 -20 7 -20 20 0 13 7 20 20 20 13 0 20
-7 20 -20z m-1795 -45 c0 -22 -31 -33 -47 -17 -17 17 -1 44 24 40 15 -2 23
-10 23 -23z m1618 -84 c5 -26 11 -30 44 -33 l38 -3 -32 -17 c-29 -16 -31 -21
-23 -48 10 -35 7 -37 -27 -10 -23 18 -26 18 -49 3 -30 -19 -40 -12 -23 18 10
20 8 25 -15 46 l-27 23 36 0 c28 0 38 5 47 25 15 33 24 32 31 -4z m-1459 -27
c19 -19 4 -57 -21 -52 -26 5 -39 34 -24 52 17 20 26 20 45 0z m1206 -29 c19
-23 4 -64 -26 -71 -19 -5 -31 -1 -47 14 -18 18 -19 25 -9 47 13 29 61 35 82
10z m-940 -14 c0 -27 -19 -36 -37 -18 -18 18 -9 37 18 37 12 0 19 -7 19 -19z
m-126 -127 c22 -21 20 -50 -5 -67 -44 -32 -94 14 -64 59 18 28 46 31 69 8z
m976 -99 c0 -8 -6 -15 -12 -18 -21 -7 -38 4 -38 23 0 10 6 20 13 23 15 5 37
-11 37 -28z m170 -26 c0 -12 -7 -19 -19 -19 -26 0 -36 17 -21 35 15 18 40 8
40 -16z m-940 -54 c13 -16 6 -35 -15 -35 -18 0 -28 17 -21 35 7 19 20 19 36 0z"/>
<path d="M970 1953 c0 -61 43 -135 113 -194 99 -84 157 -142 174 -172 22 -44
26 -26 8 44 -48 183 -160 334 -263 355 -32 6 -32 6 -32 -33z"/>
<path d="M1574 1835 c-18 -19 -44 -58 -58 -87 -28 -57 -72 -216 -62 -225 3 -3
22 7 43 23 120 89 177 209 143 298 -13 35 -26 33 -66 -9z"/>
<path d="M816 1406 c-21 -8 -43 -19 -48 -24 -13 -13 63 -67 129 -92 61 -23
178 -43 220 -38 l28 3 -54 53 c-92 89 -197 126 -275 98z"/>
<path d="M1795 1356 c-63 -20 -135 -61 -200 -113 l-60 -48 73 -3 c125 -5 227
37 273 112 29 48 25 66 -13 65 -18 0 -51 -6 -73 -13z"/>
<path d="M1195 1144 c15 -29 25 -63 25 -89 0 -23 3 -58 7 -76 7 -34 7 -33 19
21 6 30 14 67 18 81 6 22 1 33 -32 68 -52 55 -67 52 -37 -5z"/>
</g>
</svg>
