<svg id="b9e77f74-3140-4201-85c7-82d62edc0144" data-name="Layer 1" xmlns="http://www.w3.org/2000/svg" viewBox="0 0 17.44 17.44"><title>social-pinterest</title><path d="M16.54,13.08a8.81,8.81,0,0,1-3.18,3.18,8.65,8.65,0,0,1-6.93.79,8.69,8.69,0,0,0,1.06-2.28l.56-2.08a1.61,1.61,0,0,0,.77.7,2.72,2.72,0,0,0,1.23.29A3.89,3.89,0,0,0,12.36,13,4.76,4.76,0,0,0,14,11a6.16,6.16,0,0,0,.58-2.69,4.91,4.91,0,0,0-2.63-4.43,5.83,5.83,0,0,0-2.74-.65A6.62,6.62,0,0,0,6,4,5,5,0,0,0,4.1,5.89a5.21,5.21,0,0,0-.69,2.62,4.42,4.42,0,0,0,.51,2A2.77,2.77,0,0,0,5.2,11.88c.17.07.26,0,.28-.1l.25-1a.24.24,0,0,0-.07-.24,2.92,2.92,0,0,1-.46-.9A3.79,3.79,0,0,1,5.5,6.7,3.63,3.63,0,0,1,6.86,5.31,3.86,3.86,0,0,1,9,4.75a3.6,3.6,0,0,1,2.64,1,3.43,3.43,0,0,1,1,2.55,4.87,4.87,0,0,1-.79,2.88A2.33,2.33,0,0,1,9.88,12.3a1.28,1.28,0,0,1-1.06-.47,1.25,1.25,0,0,1-.24-1.11A8.08,8.08,0,0,1,8.89,9.6a7.62,7.62,0,0,0,.39-1.81A1.28,1.28,0,0,0,9,6.94a1,1,0,0,0-.81-.33,1.36,1.36,0,0,0-1.12.6,2.38,2.38,0,0,0-.46,1.51A3,3,0,0,0,6.86,10l-1,4.32a7.72,7.72,0,0,0,0,2.5,8.43,8.43,0,0,1-4-3.16,8.53,8.53,0,0,1-1.53-5A8.42,8.42,0,0,1,1.46,4.36,8.66,8.66,0,0,1,4.64,1.18,8.42,8.42,0,0,1,9,0a8.42,8.42,0,0,1,4.36,1.18,8.66,8.66,0,0,1,3.18,3.18,8.42,8.42,0,0,1,1.18,4.36A8.42,8.42,0,0,1,16.54,13.08Z" transform="translate(-0.28)" style="fill:#bea56b"/></svg>