<svg id="4cb960c3-eb81-498e-b85a-44d9971f5727" data-name="Layer 1" xmlns="http://www.w3.org/2000/svg" viewBox="0 0 15.83 12.86"><title>social--twitter</title><path d="M16.92,3.45a6.85,6.85,0,0,1-1.63,1.68c0,.1,0,.24,0,.42a9.37,9.37,0,0,1-.38,2.61,9.93,9.93,0,0,1-1.16,2.5,9.85,9.85,0,0,1-1.86,2.11,8.34,8.34,0,0,1-2.59,1.47,9.58,9.58,0,0,1-3.24.55,9,9,0,0,1-5-1.46,6.41,6.41,0,0,0,.79,0A6.32,6.32,0,0,0,5.9,12a3.24,3.24,0,0,1-3-2.25,3.44,3.44,0,0,0,.62,0,3.1,3.1,0,0,0,.85-.11A3.12,3.12,0,0,1,2.47,8.55a3.09,3.09,0,0,1-.74-2.06v0a3.23,3.23,0,0,0,1.46.41,3.18,3.18,0,0,1-1-1.16,3.15,3.15,0,0,1-.39-1.54,3.22,3.22,0,0,1,.44-1.64,9.21,9.21,0,0,0,3,2.4,9,9,0,0,0,3.73,1,4,4,0,0,1-.08-.75,3.13,3.13,0,0,1,.95-2.29A3.1,3.1,0,0,1,12,1.93a3.16,3.16,0,0,1,2.38,1,6.39,6.39,0,0,0,2-.78A3.12,3.12,0,0,1,15.05,4,6.61,6.61,0,0,0,16.92,3.45Z" transform="translate(-1.08 -1.93)" style="fill:#bea56b"/></svg>