<svg id="2b42a2b3-75c4-4bfa-a89f-ba4c9339a90c" data-name="Layer 1" xmlns="http://www.w3.org/2000/svg" viewBox="0 0 15.75 15.75"><title>social-instagram</title><path d="M16.84,5.45c0,.66,0,1.75,0,3.27s0,2.62-.06,3.29a6.3,6.3,0,0,1-.3,1.74A4.11,4.11,0,0,1,14,16.24a6.17,6.17,0,0,1-1.74.3c-.67,0-1.77.05-3.29.05s-2.62,0-3.29-.05A5.79,5.79,0,0,1,4,16.21a3.81,3.81,0,0,1-1.53-.94,4.1,4.1,0,0,1-1-1.52A6.3,6.3,0,0,1,1.18,12c0-.67-.06-1.77-.06-3.29s0-2.62.06-3.29a6.17,6.17,0,0,1,.3-1.74,4.22,4.22,0,0,1,1-1.53A4.22,4.22,0,0,1,4,1.2,6.17,6.17,0,0,1,5.71.9C6.38.86,7.48.84,9,.84s2.62,0,3.29.06A6.17,6.17,0,0,1,14,1.2a4.22,4.22,0,0,1,1.53,1,4.22,4.22,0,0,1,1,1.53A7,7,0,0,1,16.84,5.45Zm-1.69,7.91a7.15,7.15,0,0,0,.28-1.9c0-.52,0-1.24,0-2.18V8.16c0-1,0-1.69,0-2.18a6.8,6.8,0,0,0-.28-1.9,2.51,2.51,0,0,0-1.51-1.51,6.8,6.8,0,0,0-1.9-.28c-.51,0-1.24,0-2.18,0H8.44c-.94,0-1.67,0-2.18,0a7.15,7.15,0,0,0-1.9.28A2.51,2.51,0,0,0,2.85,4.08,6.8,6.8,0,0,0,2.57,6c0,.51,0,1.24,0,2.18V9.28c0,.94,0,1.66,0,2.18a7.15,7.15,0,0,0,.28,1.9,2.64,2.64,0,0,0,1.51,1.51,7.59,7.59,0,0,0,1.9.28c.51,0,1.24,0,2.18,0H9.56c1,0,1.69,0,2.18,0a7.21,7.21,0,0,0,1.9-.28A2.64,2.64,0,0,0,15.15,13.36ZM9,4.68a3.94,3.94,0,0,1,2,.54A4.12,4.12,0,0,1,12.5,6.7a4,4,0,0,1,0,4A4.2,4.2,0,0,1,11,12.22a4,4,0,0,1-4,0A4.2,4.2,0,0,1,5.5,10.74a4,4,0,0,1,0-4A4.12,4.12,0,0,1,7,5.22,3.94,3.94,0,0,1,9,4.68Zm0,6.67a2.5,2.5,0,0,0,1.86-.77,2.61,2.61,0,0,0,0-3.72,2.61,2.61,0,0,0-3.72,0,2.61,2.61,0,0,0,0,3.72A2.5,2.5,0,0,0,9,11.35ZM14.17,4.5a1,1,0,0,0-.28-.67,1,1,0,0,0-1.62.67,1,1,0,0,0,1,1,.85.85,0,0,0,.65-.28A1.18,1.18,0,0,0,14.17,4.5Z" transform="translate(-1.13 -0.84)" style="fill:#bea56b"/></svg>