<svg id="5a7722e3-7308-4065-bff5-5639a1e093c3" data-name="Layer 1" xmlns="http://www.w3.org/2000/svg" viewBox="0 0 15.75 15.75"><title>social-facebook</title><path d="M16.88,15.71a.9.9,0,0,1-.25.62.82.82,0,0,1-.63.26H12V10.48h2l.31-2.36H12V6.61a1.29,1.29,0,0,1,.21-.84,1.19,1.19,0,0,1,1-.32h1.26V3.3c-.49,0-1.1-.07-1.82-.07A3.06,3.06,0,0,0,10.37,4a3.08,3.08,0,0,0-.84,2.32V8.12h-2v2.36h2v6.11H2a.82.82,0,0,1-.63-.26.9.9,0,0,1-.25-.62v-14a.86.86,0,0,1,.25-.63A.89.89,0,0,1,2,.84H16a.88.88,0,0,1,.61.25.8.8,0,0,1,.27.63Z" transform="translate(-1.13 -0.84)" style="fill:#bea56b"/></svg>