<svg id="182b78b9-2a33-401d-b462-e0e910f43db2" data-name="Layer 1" xmlns="http://www.w3.org/2000/svg" viewBox="0 0 18 14.62"><title>social-twitter</title><path d="M16.17,5.52a10.43,10.43,0,0,1-1.23,4.89,10.09,10.09,0,0,1-3.55,4A10.13,10.13,0,0,1,5.66,16,10.26,10.26,0,0,1,0,14.38c.26,0,.55,0,.88,0a7.27,7.27,0,0,0,4.6-1.58,3.43,3.43,0,0,1-2.16-.72A3.63,3.63,0,0,1,2,10.3c.23,0,.46,0,.67,0a4.67,4.67,0,0,0,1-.11,3.74,3.74,0,0,1-2.11-1.3A3.54,3.54,0,0,1,.74,6.61V6.54A3.45,3.45,0,0,0,2.39,7,4.11,4.11,0,0,1,1.2,5.7a3.58,3.58,0,0,1,.07-3.63A10.16,10.16,0,0,0,4.62,4.82,10.24,10.24,0,0,0,8.86,5.94a4.76,4.76,0,0,1-.07-.84,3.66,3.66,0,0,1,.49-1.85A3.62,3.62,0,0,1,10.62,1.9a3.69,3.69,0,0,1,3.32-.18,4,4,0,0,1,1.21.85,7.71,7.71,0,0,0,2.36-.88,3.7,3.7,0,0,1-1.62,2A8.37,8.37,0,0,0,18,3.13a8.32,8.32,0,0,1-1.86,1.93A2.54,2.54,0,0,1,16.17,5.52Z" transform="translate(0 -1.41)" style="fill:#bea56b"/></svg>