<svg id="8ba11d78-296c-49c6-9d1d-888052e523bc" data-name="Layer 1" xmlns="http://www.w3.org/2000/svg" viewBox="0 0 53.82 43.39"><title>wheat</title><line x1="26.91" y1="9.98" x2="26.91" y2="42.89" style="fill:#c75647;stroke:#d0c4ac;stroke-linecap:round;stroke-miterlimit:10"/><ellipse cx="26.91" cy="4.16" rx="1.23" ry="4.16" style="fill:#cfbc99"/><ellipse cx="31.08" cy="9.98" rx="4.16" ry="1.23" transform="translate(2.05 24.9) rotate(-45)" style="fill:#cfbc99"/><ellipse cx="31.08" cy="14.61" rx="4.16" ry="1.23" transform="translate(-1.23 26.26) rotate(-45)" style="fill:#cfbc99"/><ellipse cx="31.08" cy="19.25" rx="4.16" ry="1.23" transform="translate(-4.51 27.62) rotate(-45)" style="fill:#cfbc99"/><ellipse cx="31.08" cy="23.88" rx="4.16" ry="1.23" transform="translate(-7.79 28.97) rotate(-45)" style="fill:#cfbc99"/><ellipse cx="31.08" cy="28.52" rx="4.16" ry="1.23" transform="translate(-11.06 30.33) rotate(-45)" style="fill:#cfbc99"/><ellipse cx="22.74" cy="9.98" rx="1.23" ry="4.16" transform="translate(-0.4 19) rotate(-45)" style="fill:#cfbc99"/><ellipse cx="22.74" cy="14.61" rx="1.23" ry="4.16" transform="translate(-3.67 20.36) rotate(-45)" style="fill:#cfbc99"/><ellipse cx="22.74" cy="19.25" rx="1.23" ry="4.16" transform="translate(-6.95 21.71) rotate(-45)" style="fill:#cfbc99"/><ellipse cx="22.74" cy="23.88" rx="1.23" ry="4.16" transform="translate(-10.23 23.07) rotate(-45)" style="fill:#cfbc99"/><ellipse cx="22.74" cy="28.52" rx="1.23" ry="4.16" transform="translate(-13.51 24.43) rotate(-45)" style="fill:#cfbc99"/><line x1="46.7" y1="9.98" x2="46.7" y2="42.83" style="fill:#c75647;stroke:#d0c4ac;stroke-linecap:round;stroke-miterlimit:10"/><ellipse cx="46.7" cy="4.16" rx="1.23" ry="4.16" style="fill:#cfbc99"/><ellipse cx="50.88" cy="9.98" rx="4.16" ry="1.23" transform="translate(7.84 38.9) rotate(-45)" style="fill:#cfbc99"/><ellipse cx="50.88" cy="14.61" rx="4.16" ry="1.23" transform="translate(4.57 40.26) rotate(-45)" style="fill:#cfbc99"/><ellipse cx="50.88" cy="19.25" rx="4.16" ry="1.23" transform="translate(1.29 41.61) rotate(-45)" style="fill:#cfbc99"/><ellipse cx="50.88" cy="23.88" rx="4.16" ry="1.23" transform="translate(-1.99 42.97) rotate(-45)" style="fill:#cfbc99"/><ellipse cx="50.88" cy="28.52" rx="4.16" ry="1.23" transform="translate(-5.26 44.33) rotate(-45)" style="fill:#cfbc99"/><ellipse cx="42.53" cy="9.98" rx="1.23" ry="4.16" transform="translate(5.4 33) rotate(-45)" style="fill:#cfbc99"/><ellipse cx="42.53" cy="14.61" rx="1.23" ry="4.16" transform="translate(2.12 34.35) rotate(-45)" style="fill:#cfbc99"/><ellipse cx="42.53" cy="19.25" rx="1.23" ry="4.16" transform="translate(-1.15 35.71) rotate(-45)" style="fill:#cfbc99"/><ellipse cx="42.53" cy="23.88" rx="1.23" ry="4.16" transform="translate(-4.43 37.07) rotate(-45)" style="fill:#cfbc99"/><ellipse cx="42.53" cy="28.52" rx="1.23" ry="4.16" transform="translate(-7.71 38.43) rotate(-45)" style="fill:#cfbc99"/><line x1="7.11" y1="9.98" x2="7.11" y2="42.5" style="fill:#c75647;stroke:#d0c4ac;stroke-linecap:round;stroke-miterlimit:10"/><ellipse cx="7.11" cy="4.16" rx="1.23" ry="4.16" style="fill:#cfbc99"/><ellipse cx="11.29" cy="9.98" rx="4.16" ry="1.23" transform="translate(-3.75 10.9) rotate(-45)" style="fill:#cfbc99"/><ellipse cx="11.29" cy="14.61" rx="4.16" ry="1.23" transform="translate(-7.03 12.26) rotate(-45)" style="fill:#cfbc99"/><ellipse cx="11.29" cy="19.25" rx="4.16" ry="1.23" transform="translate(-10.31 13.62) rotate(-45)" style="fill:#cfbc99"/><ellipse cx="11.29" cy="23.88" rx="4.16" ry="1.23" transform="translate(-13.58 14.98) rotate(-45)" style="fill:#cfbc99"/><ellipse cx="11.29" cy="28.52" rx="4.16" ry="1.23" transform="translate(-16.86 16.33) rotate(-45)" style="fill:#cfbc99"/><ellipse cx="2.94" cy="9.98" rx="1.23" ry="4.16" transform="translate(-6.2 5) rotate(-45)" style="fill:#cfbc99"/><ellipse cx="2.94" cy="14.61" rx="1.23" ry="4.16" transform="translate(-9.47 6.36) rotate(-45)" style="fill:#cfbc99"/><ellipse cx="2.94" cy="19.25" rx="1.23" ry="4.16" transform="translate(-12.75 7.72) rotate(-45)" style="fill:#cfbc99"/><ellipse cx="2.94" cy="23.88" rx="1.23" ry="4.16" transform="translate(-16.03 9.07) rotate(-45)" style="fill:#cfbc99"/><ellipse cx="2.94" cy="28.52" rx="1.23" ry="4.16" transform="translate(-19.3 10.43) rotate(-45)" style="fill:#cfbc99"/></svg>