<svg data-name="Layer 1" xmlns="http://www.w3.org/2000/svg" viewBox="0 0 15.83 12.86"><path d="M15.84 1.52a6.85 6.85 0 0 1-1.63 1.68v.42a9.37 9.37 0 0 1-.38 2.61 9.93 9.93 0 0 1-1.16 2.5 9.85 9.85 0 0 1-1.86 2.11 8.34 8.34 0 0 1-2.59 1.47 9.58 9.58 0 0 1-3.24.55 9 9 0 0 1-5-1.46 6.41 6.41 0 0 0 .79 0 6.32 6.32 0 0 0 4.05-1.33 3.24 3.24 0 0 1-3-2.25 3.44 3.44 0 0 0 .62 0 3.1 3.1 0 0 0 .85-.11 3.12 3.12 0 0 1-1.9-1.09 3.09 3.09 0 0 1-.74-2.06 3.23 3.23 0 0 0 1.46.41 3.18 3.18 0 0 1-1-1.16 3.15 3.15 0 0 1-.39-1.54A3.22 3.22 0 0 1 1.16.63a9.21 9.21 0 0 0 3 2.4 9 9 0 0 0 3.73 1 4 4 0 0 1-.08-.75A3.13 3.13 0 0 1 8.76.99 3.1 3.1 0 0 1 10.92 0a3.16 3.16 0 0 1 2.38 1 6.39 6.39 0 0 0 2-.78 3.12 3.12 0 0 1-1.33 1.85 6.61 6.61 0 0 0 1.87-.55z" fill="#bea56b"/></svg>