<svg data-name="Layer 1" xmlns="http://www.w3.org/2000/svg" viewBox="0 0 18 14.62"><path d="M16.17 4.11A10.43 10.43 0 0 1 14.94 9a10.09 10.09 0 0 1-3.55 4 10.13 10.13 0 0 1-5.73 1.59A10.26 10.26 0 0 1 0 12.97h.88a7.27 7.27 0 0 0 4.6-1.58 3.43 3.43 0 0 1-2.16-.72A3.63 3.63 0 0 1 2 8.89h.67a4.67 4.67 0 0 0 1-.11 3.74 3.74 0 0 1-2.11-1.3A3.54 3.54 0 0 1 .74 5.2v-.07a3.45 3.45 0 0 0 1.65.46 4.11 4.11 0 0 1-1.19-1.3A3.58 3.58 0 0 1 1.27.66a10.16 10.16 0 0 0 3.35 2.75 10.24 10.24 0 0 0 4.24 1.12 4.76 4.76 0 0 1-.07-.84 3.66 3.66 0 0 1 .49-1.85A3.62 3.62 0 0 1 10.62.49a3.69 3.69 0 0 1 3.32-.18 4 4 0 0 1 1.21.85 7.71 7.71 0 0 0 2.36-.88 3.7 3.7 0 0 1-1.62 2A8.37 8.37 0 0 0 18 1.72a8.32 8.32 0 0 1-1.86 1.93 2.54 2.54 0 0 1 .03.46z" fill="#bea56b"/></svg>