<svg data-name="Layer 1" xmlns="http://www.w3.org/2000/svg" viewBox="0 0 15.75 15.75"><path d="M15.71 4.61v3.27c0 1.52 0 2.62-.06 3.29a6.3 6.3 0 0 1-.3 1.74 4.11 4.11 0 0 1-2.48 2.49 6.17 6.17 0 0 1-1.74.3c-.67 0-1.77.05-3.29.05s-2.62 0-3.29-.05a5.79 5.79 0 0 1-1.68-.33 3.81 3.81 0 0 1-1.53-.94 4.1 4.1 0 0 1-1-1.52 6.3 6.3 0 0 1-.29-1.75c0-.67-.06-1.77-.06-3.29s0-2.62.06-3.29a6.17 6.17 0 0 1 .3-1.74 4.22 4.22 0 0 1 1-1.53A4.22 4.22 0 0 1 2.87.36a6.17 6.17 0 0 1 1.71-.3C5.25.02 6.35 0 7.87 0s2.62 0 3.29.06a6.17 6.17 0 0 1 1.71.3 4.22 4.22 0 0 1 1.53 1 4.22 4.22 0 0 1 1 1.53 7 7 0 0 1 .31 1.72zm-1.69 7.91a7.15 7.15 0 0 0 .28-1.9V7.32 5.14a6.8 6.8 0 0 0-.28-1.9 2.51 2.51 0 0 0-1.51-1.51 6.8 6.8 0 0 0-1.9-.28H5.13a7.15 7.15 0 0 0-1.9.28 2.51 2.51 0 0 0-1.51 1.51 6.8 6.8 0 0 0-.28 1.92V10.62a7.15 7.15 0 0 0 .28 1.9 2.64 2.64 0 0 0 1.51 1.51 7.59 7.59 0 0 0 1.9.28h5.48a7.21 7.21 0 0 0 1.9-.28 2.64 2.64 0 0 0 1.51-1.51zM7.87 3.84a3.94 3.94 0 0 1 2 .54 4.12 4.12 0 0 1 1.5 1.48 4 4 0 0 1 0 4 4.2 4.2 0 0 1-1.5 1.52 4 4 0 0 1-4 0 4.2 4.2 0 0 1-1.5-1.48 4 4 0 0 1 0-4 4.12 4.12 0 0 1 1.5-1.52 3.94 3.94 0 0 1 2-.54zm0 6.67a2.5 2.5 0 0 0 1.86-.77 2.61 2.61 0 0 0 0-3.72 2.61 2.61 0 0 0-3.72 0 2.61 2.61 0 0 0 0 3.72 2.5 2.5 0 0 0 1.86.77zm5.17-6.85a1 1 0 0 0-.28-.67 1 1 0 0 0-1.62.67 1 1 0 0 0 1 1 .85.85 0 0 0 .65-.28 1.18 1.18 0 0 0 .25-.72z" fill="#bea56b"/></svg>