<svg data-name="Layer 1" xmlns="http://www.w3.org/2000/svg" viewBox="0 0 17.44 17.44"><path d="M16.26 13.08a8.81 8.81 0 0 1-3.18 3.18 8.65 8.65 0 0 1-6.93.79 8.69 8.69 0 0 0 1.06-2.28l.56-2.08a1.61 1.61 0 0 0 .77.7 2.72 2.72 0 0 0 1.23.29 3.89 3.89 0 0 0 2.31-.68 4.76 4.76 0 0 0 1.64-2 6.16 6.16 0 0 0 .58-2.69 4.91 4.91 0 0 0-2.63-4.43 5.83 5.83 0 0 0-2.74-.65A6.62 6.62 0 0 0 5.72 4a5 5 0 0 0-1.9 1.89 5.21 5.21 0 0 0-.69 2.62 4.42 4.42 0 0 0 .51 2 2.77 2.77 0 0 0 1.28 1.37c.17.07.26 0 .28-.1l.25-1a.24.24 0 0 0-.07-.24 2.92 2.92 0 0 1-.46-.9 3.79 3.79 0 0 1 .3-2.94 3.63 3.63 0 0 1 1.36-1.39 3.86 3.86 0 0 1 2.14-.56 3.6 3.6 0 0 1 2.64 1 3.43 3.43 0 0 1 1 2.55 4.87 4.87 0 0 1-.79 2.88A2.33 2.33 0 0 1 9.6 12.3a1.28 1.28 0 0 1-1.06-.47 1.25 1.25 0 0 1-.24-1.11 8.08 8.08 0 0 1 .31-1.12A7.62 7.62 0 0 0 9 7.79a1.28 1.28 0 0 0-.28-.85 1 1 0 0 0-.81-.33 1.36 1.36 0 0 0-1.12.6 2.38 2.38 0 0 0-.46 1.51A3 3 0 0 0 6.58 10l-1 4.32a7.72 7.72 0 0 0 0 2.5 8.43 8.43 0 0 1-4-3.16 8.53 8.53 0 0 1-1.53-5 8.42 8.42 0 0 1 1.13-4.3 8.66 8.66 0 0 1 3.18-3.18A8.42 8.42 0 0 1 8.72 0a8.42 8.42 0 0 1 4.36 1.18 8.66 8.66 0 0 1 3.18 3.18 8.42 8.42 0 0 1 1.18 4.36 8.42 8.42 0 0 1-1.18 4.36z" fill="#bea56b"/></svg>