<svg data-name="Layer 1" xmlns="http://www.w3.org/2000/svg" viewBox="0 0 53.82 43.39"><path fill="#c75647" stroke="#d0c4ac" stroke-linecap="round" stroke-miterlimit="10" d="M26.91 9.98v32.91"/><ellipse cx="26.91" cy="4.16" rx="1.23" ry="4.16" fill="#cfbc99"/><ellipse cx="31.08" cy="9.98" rx="4.16" ry="1.23" transform="rotate(-45 31.082 9.975)" fill="#cfbc99"/><ellipse cx="31.08" cy="14.61" rx="4.16" ry="1.23" transform="rotate(-45 31.084 14.615)" fill="#cfbc99"/><ellipse cx="31.08" cy="19.25" rx="4.16" ry="1.23" transform="rotate(-45 31.085 19.254)" fill="#cfbc99"/><ellipse cx="31.08" cy="23.88" rx="4.16" ry="1.23" transform="rotate(-45 31.075 23.888)" fill="#cfbc99"/><ellipse cx="31.08" cy="28.52" rx="4.16" ry="1.23" transform="rotate(-45 31.082 28.516)" fill="#cfbc99"/><ellipse cx="22.74" cy="9.98" rx="1.23" ry="4.16" transform="rotate(-45 22.735 9.983)" fill="#cfbc99"/><ellipse cx="22.74" cy="14.61" rx="1.23" ry="4.16" transform="rotate(-45 22.742 14.61)" fill="#cfbc99"/><ellipse cx="22.74" cy="19.25" rx="1.23" ry="4.16" transform="rotate(-45 22.731 19.244)" fill="#cfbc99"/><ellipse cx="22.74" cy="23.88" rx="1.23" ry="4.16" transform="rotate(-45 22.733 23.884)" fill="#cfbc99"/><ellipse cx="22.74" cy="28.52" rx="1.23" ry="4.16" transform="rotate(-45 22.735 28.523)" fill="#cfbc99"/><path fill="#c75647" stroke="#d0c4ac" stroke-linecap="round" stroke-miterlimit="10" d="M46.7 9.98v32.85"/><ellipse cx="46.7" cy="4.16" rx="1.23" ry="4.16" fill="#cfbc99"/><ellipse cx="50.88" cy="9.98" rx="4.16" ry="1.23" transform="rotate(-45 50.876 9.986)" fill="#cfbc99"/><ellipse cx="50.88" cy="14.61" rx="4.16" ry="1.23" transform="rotate(-45 50.883 14.614)" fill="#cfbc99"/><ellipse cx="50.88" cy="19.25" rx="4.16" ry="1.23" transform="rotate(-45 50.873 19.248)" fill="#cfbc99"/><ellipse cx="50.88" cy="23.88" rx="4.16" ry="1.23" transform="rotate(-45 50.874 23.887)" fill="#cfbc99"/><ellipse cx="50.88" cy="28.52" rx="4.16" ry="1.23" transform="rotate(-45 50.881 28.514)" fill="#cfbc99"/><ellipse cx="42.53" cy="9.98" rx="1.23" ry="4.16" transform="rotate(-45 42.535 9.982)" fill="#cfbc99"/><ellipse cx="42.53" cy="14.61" rx="1.23" ry="4.16" transform="rotate(-45 42.524 14.616)" fill="#cfbc99"/><ellipse cx="42.53" cy="19.25" rx="1.23" ry="4.16" transform="rotate(-45 42.53 19.243)" fill="#cfbc99"/><ellipse cx="42.53" cy="23.88" rx="1.23" ry="4.16" transform="rotate(-45 42.532 23.882)" fill="#cfbc99"/><ellipse cx="42.53" cy="28.52" rx="1.23" ry="4.16" transform="rotate(-45 42.534 28.522)" fill="#cfbc99"/><path fill="#c75647" stroke="#d0c4ac" stroke-linecap="round" stroke-miterlimit="10" d="M7.11 9.98V42.5"/><ellipse cx="7.11" cy="4.16" rx="1.23" ry="4.16" fill="#cfbc99"/><ellipse cx="11.29" cy="9.98" rx="4.16" ry="1.23" transform="rotate(-45 11.282 9.977)" fill="#cfbc99"/><ellipse cx="11.29" cy="14.61" rx="4.16" ry="1.23" transform="rotate(-45 11.284 14.616)" fill="#cfbc99"/><ellipse cx="11.29" cy="19.25" rx="4.16" ry="1.23" transform="rotate(-45 11.286 19.255)" fill="#cfbc99"/><ellipse cx="11.29" cy="23.88" rx="4.16" ry="1.23" transform="rotate(-45 11.292 23.883)" fill="#cfbc99"/><ellipse cx="11.29" cy="28.52" rx="4.16" ry="1.23" transform="rotate(-45 11.282 28.517)" fill="#cfbc99"/><ellipse cx="2.94" cy="9.98" rx="1.23" ry="4.16" transform="rotate(-45 2.936 9.984)" fill="#cfbc99"/><ellipse cx="2.94" cy="14.61" rx="1.23" ry="4.16" transform="rotate(-45 2.942 14.611)" fill="#cfbc99"/><ellipse cx="2.94" cy="19.25" rx="1.23" ry="4.16" transform="rotate(-45 2.944 19.25)" fill="#cfbc99"/><ellipse cx="2.94" cy="23.88" rx="1.23" ry="4.16" transform="rotate(-45 2.933 23.885)" fill="#cfbc99"/><ellipse cx="2.94" cy="28.52" rx="1.23" ry="4.16" transform="rotate(-45 2.94 28.512)" fill="#cfbc99"/></svg>