<svg id="bfc9b7a8-41d6-41ef-81c6-189ecfeccbfa" data-name="Layer 1" xmlns="http://www.w3.org/2000/svg" xmlns:xlink="http://www.w3.org/1999/xlink" viewBox="0 0 2914.89 1182.46"><defs><clipPath id="eb537337-509b-4772-9d0c-3fe80251003e" transform="translate(674.55 168.93)"><rect width="1614" height="945" style="fill:none"/></clipPath></defs><title>lines</title><g style="clip-path:url(#eb537337-509b-4772-9d0c-3fe80251003e)"><path d="M-674.11,1013.3-54-168.7m-615.55,1182L-49.4-168.7m-615.55,1182,620.13-1182m-615.55,1182,620.13-1182m-615.55,1182,620.13-1182m-615.55,1182,620.12-1182m-615.55,1182,620.13-1182m-615.55,1182,620.13-1182m-615.55,1182,620.13-1182m-615.55,1182,620.13-1182m-615.55,1182L-8.19-168.7m-615.55,1182L-3.61-168.7m-615.55,1182L1-168.7m-615.55,1182L5.54-168.7M-610,1013.3,10.12-168.7m-615.55,1182L14.7-168.7m-615.55,1182L19.28-168.7m-615.55,1182L23.86-168.7m-615.55,1182L28.44-168.7m-615.55,1182L33-168.7m-615.55,1182L37.59-168.7M-578,1013.3,42.17-168.7m-615.55,1182L46.75-168.7m-615.55,1182L51.33-168.7m-615.55,1182L55.91-168.7m-615.55,1182L60.49-168.7m-615.55,1182L65.07-168.7m-615.55,1182L69.64-168.7m-615.55,1182L74.22-168.7m-615.55,1182L78.8-168.7m-615.55,1182L83.38-168.7m-615.55,1182L88-168.7m-615.55,1182L92.54-168.7M-523,1013.3,97.12-168.7m-615.55,1182L101.7-168.7m-615.56,1182,620.13-1182m-615.55,1182,620.13-1182m-615.55,1182,620.13-1182m-615.55,1182L120-168.7m-615.55,1182,620.13-1182M-491,1013.3l620.13-1182m-615.55,1182,620.13-1182m-615.55,1182,620.12-1182m-615.55,1182L142.9-168.7m-615.55,1182,620.13-1182m-615.55,1182,620.13-1182m-615.55,1182,620.13-1182m-615.55,1182,620.13-1182m-615.55,1182L165.8-168.7m-615.55,1182,620.12-1182m-615.55,1182L175-168.7m-615.55,1182,620.13-1182M-436,1013.3l620.13-1182m-615.55,1182,620.13-1182m-615.55,1182,620.13-1182m-615.55,1182,620.13-1182m-615.55,1182,620.13-1182m-615.55,1182L207-168.7m-615.55,1182,620.13-1182M-404,1013.3l620.13-1182m-615.55,1182,620.13-1182m-615.55,1182,620.13-1182m-615.55,1182L229.9-168.7m-615.55,1182,620.13-1182m-615.55,1182,620.12-1182m-615.55,1182,620.13-1182m-615.55,1182,620.13-1182m-615.55,1182,620.13-1182m-615.55,1182,620.13-1182m-615.55,1182L262-168.7m-615.55,1182,620.13-1182M-349,1013.3l620.13-1182m-615.56,1182L275.7-168.7m-615.55,1182,620.13-1182m-615.55,1182,620.13-1182m-615.55,1182,620.13-1182m-615.55,1182L294-168.7m-615.55,1182,620.13-1182M-317,1013.3l620.13-1182m-615.55,1182L307.7-168.7m-615.55,1182,620.13-1182m-615.55,1182,620.13-1182m-615.55,1182,620.13-1182m-615.55,1182L326-168.7m-615.55,1182L330.6-168.7m-615.55,1182,620.13-1182m-615.55,1182,620.12-1182m-615.55,1182,620.13-1182m-615.55,1182,620.13-1182m-615.55,1182,620.13-1182M-262,1013.3l620.1-1182m-615.55,1182,620.13-1182m-615.55,1182,620.13-1182m-615.55,1182,620.13-1182m-615.55,1182,620.12-1182m-615.55,1182L381-168.7m-615.55,1182,620.13-1182M-230,1013.3l620.13-1182m-615.55,1182,620.13-1182m-615.55,1182,620.13-1182m-615.55,1182,620.13-1182m-615.55,1182,620.12-1182m-615.55,1182L413-168.7m-615.55,1182,620.13-1182M-198,1013.3,422.2-168.7m-615.55,1182,620.13-1182m-615.55,1182,620.13-1182m-615.55,1182,620.13-1182m-615.55,1182,620.13-1182M-175,1013.3l620.13-1182m-615.55,1182,620.13-1182m-615.55,1182,620.13-1182m-615.55,1182,620.13-1182m-615.55,1182,620.13-1182m-615.55,1182L468-168.7m-615.55,1182,620.13-1182M-143,1013.3l620.12-1182m-615.55,1182L481.7-168.7m-615.55,1182L486.3-168.7m-615.55,1182,620.13-1182m-615.55,1182,620.13-1182m-615.55,1182L500-168.7m-615.55,1182,620.13-1182M-111,1013.3l620.12-1182m-615.55,1182,620.13-1182m-615.55,1182,620.13-1182M-97.2,1013.3l620.13-1182m-615.55,1182,620.13-1182M-88,1013.3l620.13-1182m-615.55,1182,620.13-1182m-615.55,1182,620.13-1182M-74.3,1013.3l620.12-1182m-615.55,1182L550.4-168.7m-615.55,1182L555-168.7m-615.55,1182,620.13-1182M-56,1013.3l620.13-1182m-615.55,1182,620.13-1182m-615.55,1182L573.3-168.7m-615.55,1182,620.12-1182m-615.55,1182,620.13-1182M-33.1,1013.3,587-168.7m-615.55,1182,620.13-1182M-24,1013.3l620.13-1182m-615.55,1182,620.13-1182m-615.55,1182,620.13-1182M-10.2,1013.3l620.13-1182M-5.63,1013.3,614.5-168.7M-1,1013.3l620.13-1182M3.53,1013.3l620.13-1182M8.11,1013.3l620.13-1182M12.69,1013.3l620.13-1182M17.27,1013.3,637.4-168.7M21.85,1013.3,642-168.7M26.43,1013.3l620.12-1182M31,1013.3l620.13-1182M35.58,1013.3l620.13-1182M40.16,1013.3l620.13-1182M44.74,1013.3l620.13-1182M49.32,1013.3l620.13-1182M53.9,1013.3,674-168.7M58.48,1013.3,678.6-168.7M63.05,1013.3l620.13-1182M67.63,1013.3l620.13-1182M72.21,1013.3l620.13-1182M76.79,1013.3l620.13-1182M81.37,1013.3,701.5-168.7M86,1013.3l620.13-1182m-615.6,1182,620.13-1182M95.11,1013.3l620.12-1182M99.68,1013.3l620.13-1182m-615.55,1182,620.13-1182m-615.55,1182L729-168.7m-615.55,1182,620.13-1182M118,1013.3l620.13-1182m-615.55,1182,620.13-1182m-615.55,1182,620.12-1182m-615.55,1182,620.13-1182m-615.55,1182,620.13-1182m-615.55,1182L761-168.7m-615.55,1182L765.6-168.7m-615.55,1182,620.13-1182m-615.55,1182,620.13-1182m-615.55,1182,620.13-1182m-615.56,1182,620.13-1182m-615.55,1182,620.13-1182m-615.55,1182,620.13-1182m-615.55,1182,620.13-1182M182.1,1013.3l620.13-1182m-615.55,1182,620.13-1182m-615.55,1182,620.13-1182m-615.55,1182L816-168.7m-615.55,1182,620.13-1182M205,1013.3l620.13-1182m-615.55,1182L829.7-168.7m-615.55,1182,620.13-1182m-615.55,1182,620.13-1182m-615.55,1182,620.13-1182m-615.55,1182L848-168.7m-615.55,1182,620.13-1182M237,1013.3l620.13-1182m-615.55,1182,620.13-1182M246.2,1013.3l620.13-1182m-615.55,1182,620.13-1182m-615.55,1182,620.13-1182m-615.55,1182,620.13-1182m-615.55,1182,620.12-1182m-615.55,1182,620.13-1182m-615.55,1182L893.8-168.7m-615.55,1182,620.13-1182m-615.55,1182L903-168.7m-615.55,1182,620.13-1182M292,1013.3l620.13-1182m-615.55,1182L916.7-168.7m-615.55,1182,620.13-1182m-615.55,1182,620.13-1182M310.3,1013.3l620.13-1182m-615.55,1182L935-168.7m-615.55,1182,620.13-1182M324,1013.3l620.13-1182m-615.55,1182,620.13-1182m-615.56,1182,620.13-1182m-615.55,1182L957.9-168.7m-615.55,1182,620.13-1182m-615.55,1182,620.13-1182m-615.55,1182,620.13-1182m-615.55,1182,620.13-1182m-615.55,1182L980.8-168.7m-615.55,1182,620.12-1182m-615.55,1182L990-168.7m-615.6,1182,620.13-1182M379,1013.3l620.13-1182m-615.55,1182,620.13-1182m-615.55,1182,620.13-1182m-615.55,1182,620.13-1182M397.3,1013.3l620.12-1182m-615.55,1182L1022-168.7m-615.55,1182,620.13-1182M411,1013.3l620.13-1182m-615.55,1182,620.13-1182m-615.55,1182,620.13-1182m-615.55,1182,620.13-1182m-615.55,1182,620.13-1182M433.9,1013.3,1054-168.7M438.5,1013.3l620.13-1182m-615.55,1182,620.13-1182m-615.55,1182,620.13-1182m-615.55,1182,620.13-1182m-615.55,1182L1077-168.7m-615.6,1182,620.13-1182M466,1013.3l620.12-1182m-615.55,1182,620.13-1182m-615.55,1182,620.13-1182m-615.55,1182,620.13-1182m-615.55,1182,620.13-1182m-615.55,1182L1109-168.7m-615.55,1182,620.13-1182M498,1013.3l620.13-1182M502.6,1013.3l620.13-1182m-615.55,1182,620.13-1182m-615.55,1182,620.13-1182m-615.55,1182,620.13-1182m-615.55,1182,620.13-1182M525.5,1013.3l620.13-1182m-615.55,1182,620.13-1182m-615.55,1182,620.12-1182m-615.55,1182,620.13-1182m-615.55,1182,620.13-1182m-615.55,1182,620.13-1182M553,1013.3l620.13-1182m-615.55,1182,620.13-1182m-615.55,1182,620.13-1182m-615.55,1182,620.12-1182m-615.55,1182,620.13-1182m-615.55,1182L1196-168.7m-615.55,1182,620.13-1182M585,1013.3l620.13-1182M589.6,1013.3l620.13-1182m-615.55,1182,620.13-1182m-615.55,1182,620.13-1182m-615.55,1182,620.12-1182m-615.55,1182L1228-168.7m-615.55,1182,620.13-1182M617,1013.3l620.13-1182m-615.55,1182,620.13-1182m-615.55,1182,620.13-1182m-615.55,1182,620.13-1182m-615.55,1182,620.12-1182M640,1013.3l620.13-1182m-615.55,1182,620.13-1182m-615.55,1182,620.13-1182M653.7,1013.3l620.13-1182m-615.55,1182,620.13-1182m-615.55,1182L1283-168.7m-615.55,1182,620.13-1182M672,1013.3l620.13-1182m-615.55,1182,620.13-1182m-615.55,1182,620.13-1182m-615.55,1182,620.13-1182m-615.55,1182,620.13-1182M694.9,1013.3,1315-168.7m-615.55,1182,620.13-1182M704,1013.3l620.12-1182M708.6,1013.3l620.13-1182m-615.55,1182,620.13-1182M717.8,1013.3l620.13-1182m-615.55,1182,620.13-1182M727,1013.3l620.13-1182m-615.55,1182,620.13-1182m-615.55,1182,620.12-1182m-615.55,1182,620.13-1182m-615.55,1182,620.13-1182m-615.55,1182L1370-168.7m-615.55,1182,620.13-1182M759,1013.3l620.13-1182m-615.55,1182,620.13-1182m-615.55,1182,620.13-1182m-615.55,1182,620.12-1182m-615.55,1182,620.13-1182M781.9,1013.3,1402-168.7m-615.55,1182,620.13-1182M791,1013.3l620.13-1182m-615.55,1182,620.13-1182m-615.55,1182,620.13-1182M804.8,1013.3l620.12-1182m-615.55,1182,620.13-1182M814,1013.3l620.13-1182m-615.55,1182,620.13-1182m-615.55,1182,620.13-1182m-615.55,1182,620.13-1182m-615.55,1182,620.13-1182M836.9,1013.3,1457-168.7m-615.56,1182,620.13-1182M846,1013.3l620.13-1182m-615.55,1182,620.13-1182m-615.55,1182,620.13-1182m-615.55,1182,620.13-1182m-615.55,1182,620.13-1182M868.9,1013.3,1489-168.7m-615.55,1182,620.12-1182M878,1013.3l620.13-1182M882.6,1013.3l620.13-1182m-615.55,1182,620.13-1182m-615.55,1182,620.13-1182m-615.55,1182,620.13-1182M901,1013.3l620.13-1182m-615.55,1182,620.12-1182m-615.6,1182,620.13-1182m-615.55,1182,620.13-1182m-615.55,1182,620.13-1182m-615.55,1182L1544-168.7m-615.55,1182,620.13-1182M933,1013.3l620.13-1182m-615.55,1182,620.13-1182m-615.55,1182,620.12-1182m-615.55,1182,620.13-1182m-615.55,1182,620.13-1182m-615.55,1182L1576-168.7m-615.55,1182,620.13-1182M965,1013.3l620.13-1182m-615.55,1182,620.13-1182m-615.55,1182,620.12-1182m-615.55,1182,620.13-1182m-615.55,1182,620.13-1182m-615.55,1182,620.13-1182M992.5,1013.3l620.13-1182M997.1,1013.3l620.13-1182m-615.55,1182,620.13-1182m-615.55,1182,620.13-1182m-615.56,1182L1631-168.7m-615.55,1182,620.13-1182M1020,1013.3l620.13-1182m-615.55,1182,620.13-1182m-615.55,1182,620.13-1182m-615.55,1182,620.13-1182m-615.55,1182,620.13-1182m-615.55,1182L1663-168.7m-615.55,1182,620.13-1182M1052,1013.3l620.13-1182m-615.55,1182,620.13-1182m-615.55,1182,620.13-1182m-615.55,1182,620.13-1182m-615.55,1182,620.13-1182m-615.55,1182L1695-168.7m-615.55,1182,620.13-1182m-615.55,1182,620.13-1182m-615.55,1182,620.13-1182m-615.55,1182,620.13-1182m-615.55,1182L1718-168.7m-615.55,1182,620.13-1182M1107,1013.3l620.13-1182m-615.55,1182,620.12-1182m-615.55,1182,620.13-1182m-615.55,1182,620.13-1182m-615.55,1182,620.13-1182m-615.55,1182L1750-168.7m-615.55,1182,620.13-1182M1139,1013.3l620.13-1182m-615.55,1182,620.12-1182m-615.55,1182,620.13-1182m-615.55,1182,620.13-1182m-615.55,1182,620.13-1182m-615.55,1182L1782-168.7m-615.55,1182,620.13-1182m-615.55,1182,620.13-1182m-615.55,1182,620.13-1182m-615.56,1182,620.13-1182m-615.55,1182L1805-168.7m-615.55,1182,620.13-1182M1194,1013.3l620.13-1182m-615.55,1182,620.13-1182m-615.55,1182,620.13-1182m-615.55,1182,620.13-1182m-615.55,1182,620.12-1182m-615.55,1182L1837-168.7m-615.55,1182,620.13-1182M1226,1013.3l620.13-1182m-615.55,1182,620.13-1182m-615.55,1182,620.13-1182m-615.55,1182,620.13-1182m-615.55,1182,620.12-1182m-615.55,1182L1869-168.7m-615.55,1182,620.13-1182m-615.55,1182,620.13-1182m-615.55,1182,620.13-1182m-615.55,1182,620.13-1182m-615.55,1182L1892-168.7m-615.55,1182,620.13-1182M1281,1013.3l620.12-1182m-615.55,1182,620.13-1182m-615.55,1182,620.13-1182m-615.55,1182,620.13-1182m-615.55,1182,620.13-1182m-615.55,1182L1924-168.7m-615.55,1182,620.13-1182M1313,1013.3l620.12-1182m-615.55,1182,620.13-1182m-615.55,1182,620.13-1182m-615.55,1182,620.13-1182m-615.55,1182,620.13-1182m-615.55,1182L1956-168.7m-615.55,1182,620.13-1182m-615.55,1182,620.13-1182m-615.56,1182,620.13-1182m-615.55,1182,620.13-1182m-615.55,1182,620.13-1182m-615.55,1182,620.13-1182M1368,1013.3l620.13-1182m-615.55,1182,620.13-1182m-615.55,1182,620.13-1182m-615.55,1182,620.12-1182m-615.55,1182,620.13-1182m-615.55,1182L2011-168.7m-615.55,1182,620.13-1182M1400,1013.3l620.13-1182m-615.55,1182,620.13-1182m-615.55,1182,620.13-1182m-615.55,1182,620.12-1182m-615.55,1182,620.13-1182m-615.55,1182L2043-168.7m-615.55,1182,620.13-1182M1432,1013.3l620.13-1182m-615.55,1182,620.13-1182m-615.55,1182,620.13-1182m-615.55,1182,620.13-1182m-615.55,1182,620.12-1182M1455,1013.3l620.13-1182m-615.55,1182,620.13-1182m-615.55,1182,620.13-1182m-615.55,1182,620.13-1182m-615.55,1182,620.13-1182m-615.55,1182L2098-168.7m-615.55,1182,620.12-1182M1487,1013.3l620.13-1182m-615.55,1182,620.13-1182m-615.55,1182,620.13-1182m-615.55,1182,620.13-1182m-615.55,1182,620.13-1182m-615.55,1182L2130-168.7m-615.55,1182,620.13-1182M1519,1013.3l620.13-1182m-615.55,1182,620.13-1182m-615.55,1182,620.13-1182m-615.55,1182,620.13-1182m-615.55,1182,620.13-1182M1542,1013.3l620.13-1182m-615.55,1182,620.13-1182m-615.55,1182,620.12-1182m-615.55,1182,620.13-1182m-615.55,1182,620.13-1182m-615.55,1182L2185-168.7m-615.55,1182,620.13-1182M1574,1013.3l620.13-1182m-615.55,1182,620.13-1182m-615.55,1182,620.12-1182m-615.55,1182,620.13-1182m-615.55,1182,620.13-1182m-615.55,1182L2217-168.7m-615.55,1182,620.13-1182M1606,1013.3l620.13-1182m-615.55,1182,620.13-1182m-615.55,1182,620.13-1182m-615.55,1182,620.12-1182" transform="translate(674.55 168.93)" style="fill:none;stroke:#a58f54;stroke-miterlimit:10"/></g></svg>