<svg data-name="Layer 1" xmlns="http://www.w3.org/2000/svg" viewBox="0 0 1614 945"><defs><clipPath id="a"><path fill="none" d="M0 0H1614V945H0z"/></clipPath></defs><title>lines</title><g clip-path="url(#a)"><path d="M-674.11 1013.3L-54-168.7m-615.55 1182l620.15-1182m-615.55 1182l620.13-1182m-615.55 1182l620.13-1182m-615.55 1182l620.13-1182m-615.55 1182l620.12-1182m-615.55 1182l620.13-1182m-615.55 1182l620.13-1182m-615.55 1182l620.13-1182m-615.55 1182l620.13-1182m-615.55 1182l620.13-1182m-615.55 1182l620.13-1182m-615.55 1182L1-168.7m-615.55 1182L5.54-168.7M-610 1013.3l620.12-1182m-615.55 1182L14.7-168.7m-615.55 1182l620.13-1182m-615.55 1182l620.13-1182m-615.55 1182l620.13-1182m-615.55 1182L33-168.7m-615.55 1182l620.14-1182M-578 1013.3l620.17-1182m-615.55 1182l620.13-1182m-615.55 1182l620.13-1182m-615.55 1182l620.13-1182m-615.55 1182l620.13-1182m-615.55 1182l620.13-1182m-615.55 1182l620.12-1182m-615.55 1182l620.13-1182m-615.55 1182L78.8-168.7m-615.55 1182l620.13-1182m-615.55 1182L88-168.7m-615.55 1182l620.09-1182M-523 1013.3l620.12-1182m-615.55 1182l620.13-1182m-615.56 1182l620.13-1182m-615.55 1182l620.13-1182m-615.55 1182l620.13-1182m-615.55 1182L120-168.7m-615.55 1182l620.13-1182M-491 1013.3l620.13-1182m-615.55 1182l620.13-1182m-615.55 1182l620.12-1182m-615.55 1182l620.17-1182m-615.55 1182l620.13-1182m-615.55 1182l620.13-1182m-615.55 1182l620.13-1182m-615.55 1182l620.13-1182m-615.55 1182l620.13-1182m-615.55 1182l620.12-1182m-615.55 1182L175-168.7m-615.55 1182l620.13-1182M-436 1013.3l620.13-1182m-615.55 1182l620.13-1182m-615.55 1182l620.13-1182m-615.55 1182l620.13-1182m-615.55 1182l620.13-1182m-615.55 1182L207-168.7m-615.55 1182l620.13-1182M-404 1013.3l620.13-1182m-615.55 1182l620.13-1182m-615.55 1182l620.13-1182m-615.55 1182l620.16-1182m-615.55 1182l620.13-1182m-615.55 1182l620.12-1182m-615.55 1182l620.13-1182m-615.55 1182l620.13-1182m-615.55 1182l620.13-1182m-615.55 1182l620.13-1182m-615.55 1182L262-168.7m-615.55 1182l620.13-1182M-349 1013.3l620.13-1182m-615.56 1182l620.13-1182m-615.55 1182l620.13-1182m-615.55 1182l620.13-1182m-615.55 1182l620.13-1182m-615.55 1182L294-168.7m-615.55 1182l620.13-1182M-317 1013.3l620.13-1182m-615.55 1182l620.12-1182m-615.55 1182l620.13-1182m-615.55 1182l620.13-1182m-615.55 1182l620.13-1182m-615.55 1182l620.13-1182m-615.55 1182l620.13-1182m-615.55 1182l620.13-1182m-615.55 1182l620.12-1182m-615.55 1182l620.13-1182m-615.55 1182l620.13-1182m-615.55 1182l620.13-1182M-262 1013.3l620.1-1182m-615.55 1182l620.13-1182m-615.55 1182l620.13-1182m-615.55 1182l620.13-1182m-615.55 1182l620.12-1182m-615.55 1182L381-168.7m-615.55 1182l620.13-1182M-230 1013.3l620.13-1182m-615.55 1182l620.13-1182m-615.55 1182l620.13-1182m-615.55 1182l620.13-1182m-615.55 1182l620.12-1182m-615.55 1182L413-168.7m-615.55 1182l620.13-1182m-615.55 1182l620.17-1182m-615.55 1182l620.13-1182m-615.55 1182l620.13-1182m-615.55 1182l620.13-1182m-615.55 1182l620.13-1182M-175 1013.3l620.13-1182m-615.55 1182l620.13-1182m-615.55 1182l620.13-1182m-615.55 1182l620.13-1182m-615.55 1182l620.13-1182m-615.55 1182L468-168.7m-615.55 1182l620.13-1182M-143 1013.3l620.12-1182m-615.55 1182l620.13-1182m-615.55 1182l620.15-1182m-615.55 1182l620.13-1182m-615.55 1182l620.13-1182m-615.55 1182L500-168.7m-615.55 1182l620.13-1182m-615.55 1182l620.12-1182m-615.55 1182l620.13-1182m-615.55 1182l620.13-1182m-615.51 1182l620.13-1182m-615.55 1182l620.13-1182M-88 1013.3l620.13-1182m-615.55 1182l620.13-1182m-615.55 1182l620.13-1182m-615.59 1182l620.12-1182m-615.55 1182l620.13-1182m-615.55 1182L555-168.7m-615.55 1182l620.13-1182M-56 1013.3l620.13-1182m-615.55 1182l620.13-1182m-615.55 1182l620.14-1182m-615.55 1182l620.12-1182m-615.55 1182l620.13-1182m-615.55 1182L587-168.7m-615.55 1182l620.13-1182m-615.55 1182l620.13-1182m-615.55 1182l620.13-1182m-615.55 1182l620.13-1182m-615.52 1182l620.13-1182m-615.56 1182l620.13-1182M-1 1013.3l620.13-1182m-615.6 1182l620.13-1182M8.11 1013.3l620.13-1182m-615.55 1182l620.13-1182m-615.55 1182l620.13-1182m-615.55 1182L642-168.7m-615.57 1182l620.12-1182M31 1013.3l620.13-1182m-615.55 1182l620.13-1182m-615.55 1182l620.13-1182m-615.55 1182l620.13-1182m-615.55 1182l620.13-1182M53.9 1013.3L674-168.7m-615.52 1182l620.12-1182m-615.55 1182l620.13-1182m-615.55 1182l620.13-1182m-615.55 1182l620.13-1182m-615.55 1182l620.13-1182m-615.55 1182l620.13-1182M86 1013.3l620.13-1182m-615.6 1182l620.13-1182m-615.55 1182l620.12-1182m-615.55 1182l620.13-1182m-615.55 1182l620.13-1182m-615.55 1182L729-168.7m-615.55 1182l620.13-1182M118 1013.3l620.13-1182m-615.55 1182l620.13-1182m-615.55 1182l620.12-1182m-615.55 1182l620.13-1182m-615.55 1182l620.13-1182m-615.55 1182L761-168.7m-615.55 1182l620.15-1182m-615.55 1182l620.13-1182m-615.55 1182l620.13-1182m-615.55 1182l620.13-1182m-615.56 1182l620.13-1182m-615.55 1182l620.13-1182m-615.55 1182l620.13-1182m-615.55 1182l620.13-1182m-615.55 1182l620.13-1182m-615.55 1182l620.13-1182m-615.55 1182l620.13-1182m-615.55 1182L816-168.7m-615.55 1182l620.13-1182M205 1013.3l620.13-1182m-615.55 1182l620.12-1182m-615.55 1182l620.13-1182m-615.55 1182l620.13-1182m-615.55 1182l620.13-1182m-615.55 1182L848-168.7m-615.55 1182l620.13-1182M237 1013.3l620.13-1182m-615.55 1182l620.13-1182m-615.51 1182l620.13-1182m-615.55 1182l620.13-1182m-615.55 1182l620.13-1182m-615.55 1182l620.13-1182m-615.55 1182l620.12-1182m-615.55 1182l620.13-1182m-615.55 1182l620.13-1182m-615.55 1182l620.13-1182m-615.55 1182L903-168.7m-615.55 1182l620.13-1182M292 1013.3l620.13-1182m-615.55 1182l620.12-1182m-615.55 1182l620.13-1182m-615.55 1182l620.13-1182m-615.56 1182l620.13-1182m-615.55 1182L935-168.7m-615.55 1182l620.13-1182M324 1013.3l620.13-1182m-615.55 1182l620.13-1182m-615.56 1182l620.13-1182m-615.55 1182l620.17-1182m-615.55 1182l620.13-1182m-615.55 1182l620.13-1182m-615.55 1182l620.13-1182m-615.55 1182l620.13-1182m-615.55 1182l620.13-1182m-615.55 1182l620.12-1182m-615.55 1182L990-168.7m-615.6 1182l620.13-1182M379 1013.3l620.13-1182m-615.55 1182l620.13-1182m-615.55 1182l620.13-1182m-615.55 1182l620.13-1182m-615.57 1182l620.12-1182m-615.55 1182L1022-168.7m-615.55 1182l620.13-1182M411 1013.3l620.13-1182m-615.55 1182l620.13-1182m-615.55 1182l620.13-1182m-615.55 1182l620.13-1182m-615.55 1182l620.13-1182m-615.55 1182l620.12-1182m-615.52 1182l620.13-1182m-615.55 1182l620.13-1182m-615.55 1182l620.13-1182m-615.55 1182l620.13-1182m-615.55 1182L1077-168.7m-615.6 1182l620.13-1182M466 1013.3l620.12-1182m-615.55 1182l620.13-1182m-615.55 1182l620.13-1182m-615.55 1182l620.13-1182m-615.55 1182l620.13-1182m-615.55 1182L1109-168.7m-615.55 1182l620.13-1182M498 1013.3l620.13-1182m-615.53 1182l620.13-1182m-615.55 1182l620.13-1182m-615.55 1182l620.13-1182m-615.55 1182l620.13-1182m-615.55 1182l620.13-1182m-615.55 1182l620.13-1182m-615.55 1182l620.13-1182m-615.55 1182l620.12-1182m-615.55 1182l620.13-1182m-615.55 1182l620.13-1182m-615.55 1182l620.13-1182M553 1013.3l620.13-1182m-615.55 1182l620.13-1182m-615.55 1182l620.13-1182m-615.55 1182l620.12-1182m-615.55 1182l620.13-1182m-615.55 1182L1196-168.7m-615.55 1182l620.13-1182M585 1013.3l620.13-1182m-615.53 1182l620.13-1182m-615.55 1182l620.13-1182m-615.55 1182l620.13-1182m-615.55 1182l620.12-1182m-615.55 1182L1228-168.7m-615.55 1182l620.13-1182m-615.55 1182l620.13-1182m-615.55 1182l620.13-1182m-615.55 1182l620.13-1182m-615.55 1182l620.13-1182m-615.55 1182l620.12-1182M640 1013.3l620.13-1182m-615.55 1182l620.13-1182m-615.55 1182l620.13-1182m-615.59 1182l620.13-1182m-615.55 1182l620.13-1182m-615.55 1182L1283-168.7m-615.55 1182l620.13-1182M672 1013.3l620.13-1182m-615.55 1182l620.13-1182m-615.55 1182l620.13-1182m-615.55 1182l620.13-1182m-615.55 1182l620.13-1182m-615.55 1182l620.1-1182m-615.55 1182l620.13-1182m-615.55 1182l620.12-1182m-615.55 1182l620.13-1182m-615.55 1182l620.13-1182m-615.51 1182l620.13-1182m-615.55 1182l620.13-1182M727 1013.3l620.13-1182m-615.55 1182l620.13-1182m-615.55 1182l620.12-1182m-615.55 1182l620.13-1182m-615.55 1182l620.13-1182m-615.55 1182L1370-168.7m-615.55 1182l620.13-1182M759 1013.3l620.13-1182m-615.55 1182l620.13-1182m-615.55 1182l620.13-1182m-615.55 1182l620.12-1182m-615.55 1182l620.13-1182m-615.54 1182l620.1-1182m-615.55 1182l620.13-1182m-615.55 1182l620.13-1182m-615.55 1182l620.13-1182m-615.55 1182l620.13-1182m-615.52 1182l620.12-1182m-615.55 1182l620.13-1182M814 1013.3l620.13-1182m-615.55 1182l620.13-1182m-615.55 1182l620.13-1182m-615.55 1182l620.13-1182m-615.55 1182l620.13-1182m-615.55 1182l620.1-1182m-615.56 1182l620.13-1182M846 1013.3l620.13-1182m-615.55 1182l620.13-1182m-615.55 1182l620.13-1182m-615.55 1182l620.13-1182m-615.55 1182l620.13-1182m-615.55 1182l620.1-1182m-615.55 1182l620.12-1182m-615.55 1182l620.13-1182m-615.55 1182l620.13-1182m-615.55 1182l620.13-1182m-615.55 1182l620.13-1182m-615.55 1182l620.13-1182M901 1013.3l620.13-1182m-615.55 1182l620.12-1182m-615.6 1182l620.13-1182m-615.55 1182l620.13-1182m-615.55 1182l620.13-1182m-615.55 1182L1544-168.7m-615.55 1182l620.13-1182M933 1013.3l620.13-1182m-615.55 1182l620.13-1182m-615.55 1182l620.12-1182m-615.55 1182l620.13-1182m-615.55 1182l620.13-1182m-615.55 1182L1576-168.7m-615.55 1182l620.13-1182m-615.55 1182l620.13-1182m-615.55 1182l620.13-1182m-615.55 1182l620.12-1182m-615.55 1182l620.13-1182m-615.55 1182l620.13-1182m-615.55 1182l620.13-1182m-615.55 1182l620.13-1182m-615.53 1182l620.13-1182m-615.55 1182l620.13-1182m-615.55 1182l620.13-1182m-615.56 1182L1631-168.7m-615.55 1182l620.13-1182M1020 1013.3l620.13-1182m-615.55 1182l620.13-1182m-615.55 1182l620.13-1182m-615.55 1182l620.13-1182m-615.55 1182l620.13-1182m-615.55 1182l620.1-1182m-615.55 1182l620.13-1182M1052 1013.3l620.13-1182m-615.55 1182l620.13-1182m-615.55 1182l620.13-1182m-615.55 1182l620.13-1182m-615.55 1182l620.13-1182m-615.55 1182l620.12-1182m-615.55 1182l620.13-1182m-615.55 1182l620.13-1182m-615.55 1182l620.13-1182m-615.55 1182l620.13-1182m-615.55 1182L1718-168.7m-615.55 1182l620.13-1182M1107 1013.3l620.13-1182m-615.55 1182l620.12-1182m-615.55 1182l620.13-1182m-615.55 1182l620.13-1182m-615.55 1182l620.13-1182m-615.55 1182L1750-168.7m-615.55 1182l620.13-1182M1139 1013.3l620.13-1182m-615.55 1182l620.12-1182m-615.55 1182l620.13-1182m-615.55 1182l620.13-1182m-615.55 1182l620.13-1182m-615.55 1182l620.13-1182m-615.55 1182l620.13-1182m-615.55 1182l620.13-1182m-615.55 1182l620.13-1182m-615.56 1182l620.13-1182m-615.55 1182L1805-168.7m-615.55 1182l620.13-1182M1194 1013.3l620.13-1182m-615.55 1182l620.13-1182m-615.55 1182l620.13-1182m-615.55 1182l620.13-1182m-615.55 1182l620.12-1182m-615.55 1182L1837-168.7m-615.55 1182l620.13-1182M1226 1013.3l620.13-1182m-615.55 1182l620.13-1182m-615.55 1182l620.13-1182m-615.55 1182l620.13-1182m-615.55 1182l620.12-1182m-615.55 1182l620.13-1182m-615.55 1182l620.13-1182m-615.55 1182l620.13-1182m-615.55 1182l620.13-1182m-615.55 1182l620.13-1182m-615.55 1182L1892-168.7m-615.55 1182l620.13-1182M1281 1013.3l620.12-1182m-615.55 1182l620.13-1182m-615.55 1182l620.13-1182m-615.55 1182l620.13-1182m-615.55 1182l620.13-1182m-615.55 1182L1924-168.7m-615.55 1182l620.13-1182M1313 1013.3l620.12-1182m-615.55 1182l620.13-1182m-615.55 1182l620.13-1182m-615.55 1182l620.13-1182m-615.55 1182l620.13-1182m-615.55 1182l620.13-1182m-615.55 1182l620.13-1182m-615.55 1182l620.13-1182m-615.56 1182l620.13-1182m-615.55 1182l620.13-1182m-615.55 1182l620.13-1182m-615.55 1182l620.13-1182M1368 1013.3l620.13-1182m-615.55 1182l620.13-1182m-615.55 1182l620.13-1182m-615.55 1182l620.12-1182m-615.55 1182l620.13-1182m-615.55 1182L2011-168.7m-615.55 1182l620.13-1182M1400 1013.3l620.13-1182m-615.55 1182l620.13-1182m-615.55 1182l620.13-1182m-615.55 1182l620.12-1182m-615.55 1182l620.13-1182m-615.55 1182L2043-168.7m-615.55 1182l620.13-1182m-615.55 1182l620.13-1182m-615.55 1182l620.13-1182m-615.55 1182l620.13-1182m-615.55 1182l620.13-1182m-615.55 1182l620.12-1182M1455 1013.3l620.13-1182m-615.55 1182l620.13-1182m-615.55 1182l620.13-1182m-615.55 1182l620.13-1182m-615.55 1182l620.13-1182m-615.55 1182l620.1-1182m-615.55 1182l620.12-1182M1487 1013.3l620.13-1182m-615.55 1182l620.13-1182m-615.55 1182l620.13-1182m-615.55 1182l620.13-1182m-615.55 1182l620.13-1182m-615.55 1182l620.1-1182m-615.55 1182l620.13-1182m-615.56 1182l620.13-1182m-615.55 1182l620.13-1182m-615.55 1182l620.13-1182m-615.55 1182l620.13-1182m-615.55 1182l620.13-1182M1542 1013.3l620.13-1182m-615.55 1182l620.13-1182m-615.55 1182l620.12-1182m-615.55 1182l620.13-1182m-615.55 1182l620.13-1182m-615.55 1182L2185-168.7m-615.55 1182l620.13-1182M1574 1013.3l620.13-1182m-615.55 1182l620.13-1182m-615.55 1182l620.12-1182m-615.55 1182l620.13-1182m-615.55 1182l620.13-1182m-615.55 1182L2217-168.7m-615.55 1182l620.13-1182m-615.55 1182l620.13-1182m-615.55 1182l620.13-1182m-615.55 1182l620.13-1182m-615.55 1182l620.12-1182" fill="none" stroke="#a58f54" stroke-miterlimit="10" stroke-width="0.75px"/></g></svg>