<svg data-name="Layer 1" xmlns="http://www.w3.org/2000/svg" width="2914.92" height="1182.46" viewBox="0 0 2914.92 1182.46"><defs><clipPath id="a" transform="translate(674.55 168.93)"><path fill="none" d="M0 0H1614V945H0z"/></clipPath></defs><title>lines</title><g clip-path="url(#a)"><path d="M.44 1182.23L620.55.23M5 1182.23L625.15.23M9.6 1182.23L629.73.23m-615.55 1182L634.31.23m-615.55 1182L638.89.23m-615.55 1182L643.46.23m-615.55 1182L648.04.23m-615.55 1182L652.62.23m-615.55 1182L657.2.23m-615.55 1182L661.78.23m-615.55 1182L666.36.23m-615.55 1182L670.94.23m-615.55 1182L675.55.23M60 1182.23L680.09.23m-615.54 1182L684.67.23m-615.55 1182L689.25.23m-615.55 1182L693.83.23m-615.55 1182L698.41.23m-615.55 1182L702.99.23m-615.55 1182L707.55.23M92 1182.23L712.14.23m-615.59 1182L716.72.23m-615.55 1182L721.3.23m-615.55 1182L725.88.23m-615.55 1182L730.46.23m-615.55 1182L735.04.23m-615.55 1182L739.62.23m-615.55 1182L744.19.23m-615.55 1182L748.77.23m-615.55 1182L753.35.23m-615.55 1182L757.93.23m-615.55 1182L762.55.23M147 1182.23L767.09.23m-615.54 1182L771.67.23m-615.55 1182L776.25.23m-615.56 1182L780.82.23m-615.55 1182L785.4.23m-615.55 1182L789.98.23m-615.55 1182L794.55.23M179 1182.23L799.13.23m-615.58 1182L803.68.23m-615.55 1182L808.26.23m-615.55 1182L812.83.23m-615.55 1182L817.45.23m-615.55 1182L822.03.23m-615.55 1182L826.61.23m-615.55 1182L831.19.23m-615.55 1182L835.77.23m-615.55 1182L840.35.23m-615.55 1182L844.92.23m-615.55 1182L849.55.23M234 1182.23L854.13.23m-615.58 1182L858.68.23m-615.55 1182L863.26.23m-615.55 1182L867.84.23m-615.55 1182L872.42.23m-615.55 1182L877 .23m-615.55 1182L881.55.23M266 1182.23L886.13.23m-615.58 1182L890.68.23m-615.55 1182L895.26.23m-615.55 1182L899.84.23m-615.55 1182L904.45.23m-615.55 1182L909.03.23m-615.55 1182L913.6.23m-615.55 1182L918.18.23m-615.55 1182L922.76.23m-615.55 1182L927.34.23m-615.55 1182L931.92.23m-615.55 1182L936.55.23M321 1182.23L941.13.23m-615.58 1182L945.68.23m-615.56 1182L950.25.23m-615.55 1182L954.83.23m-615.55 1182L959.41.23m-615.55 1182L963.99.23m-615.55 1182L968.55.23M353 1182.23L973.13.23m-615.58 1182L977.68.23m-615.55 1182L982.25.23m-615.55 1182L986.83.23m-615.55 1182L991.41.23m-615.55 1182L995.99.23m-615.55 1182L1000.57.23m-615.55 1182L1005.15.23m-615.55 1182L1009.73.23m-615.55 1182L1014.3.23m-615.55 1182L1018.88.23m-615.55 1182L1023.46.23m-615.55 1182L1028.04.23m-615.49 1182l620.1-1182m-615.55 1182L1037.23.23m-615.55 1182L1041.81.23m-615.55 1182L1046.39.23m-615.55 1182L1050.96.23m-615.55 1182L1055.55.23M440 1182.23L1060.13.23m-615.58 1182L1064.68.23m-615.55 1182L1069.26.23m-615.55 1182L1073.84.23m-615.55 1182L1078.42.23m-615.55 1182L1082.99.23m-615.55 1182L1087.55.23M472 1182.23L1092.13.23m-615.55 1182L1096.75.23m-615.55 1182L1101.33.23m-615.55 1182L1105.91.23m-615.55 1182L1110.49.23m-615.55 1182L1115.07.23m-615.52 1182L1119.68.23m-615.55 1182L1124.26.23m-615.55 1182L1128.84.23m-615.55 1182L1133.42.23m-615.55 1182L1138 .23m-615.55 1182l620.1-1182M527 1182.23L1147.13.23m-615.58 1182L1151.67.23m-615.55 1182L1156.25.23m-615.55 1182L1160.85.23m-615.55 1182L1165.43.23m-615.55 1182L1170.01.23m-615.55 1182L1174.55.23M559 1182.23L1179.13.23m-615.55 1182L1183.7.23m-615.55 1182L1188.28.23m-615.55 1182L1192.86.23m-615.51 1182L1197.48.23m-615.55 1182L1202.06.23m-615.51 1182L1206.68.23m-615.55 1182L1211.26.23m-615.55 1182L1215.84.23m-615.59 1182L1220.37.23m-615.55 1182L1224.95.23m-615.55 1182L1229.55.23M614 1182.23L1234.13.23m-615.58 1182L1238.68.23m-615.55 1182L1243.26.23m-615.55 1182L1247.85.23m-615.55 1182L1252.42.23m-615.55 1182L1257 .23m-615.55 1182l620.1-1182M646 1182.23L1266.13.23m-615.55 1182L1270.71.23m-615.55 1182L1275.29.23m-615.55 1182L1279.87.23m-615.52 1182L1284.48.23m-615.56 1182L1289.05.23m-615.5 1182L1293.68.23m-615.6 1182L1298.21.23m-615.55 1182L1302.79.23m-615.55 1182L1307.37.23m-615.55 1182L1311.95.23m-615.55 1182L1316.55.23m-615.57 1182L1321.1.23m-615.55 1182L1325.68.23m-615.55 1182L1330.26.23m-615.55 1182L1334.84.23m-615.55 1182L1339.42.23m-615.55 1182L1344 .23m-615.55 1182l620.1-1182m-615.52 1182L1353.15.23m-615.55 1182L1357.73.23m-615.55 1182L1362.31.23m-615.55 1182L1366.89.23m-615.55 1182L1371.47.23m-615.55 1182L1376.05.23m-615.5 1182L1380.68.23m-615.6 1182L1385.21.23m-615.55 1182L1389.78.23m-615.55 1182L1394.36.23m-615.55 1182L1398.94.23m-615.55 1182L1403.55.23M788 1182.23L1408.13.23m-615.58 1182L1412.68.23m-615.55 1182L1417.26.23m-615.55 1182L1421.83.23m-615.55 1182L1426.41.23m-615.55 1182L1430.99.23m-615.55 1182L1435.55.23M820 1182.23L1440.15.23m-615.55 1182L1444.73.23m-615.55 1182L1449.31.23m-615.55 1182L1453.89.23m-615.56 1182L1458.46.23m-615.55 1182L1463.04.23m-615.55 1182L1467.62.23m-615.55 1182L1472.2.23m-615.55 1182L1476.78.23m-615.55 1182L1481.36.23m-615.55 1182L1485.94.23m-615.55 1182L1490.55.23M875 1182.23L1495.13.23m-615.58 1182L1499.68.23m-615.55 1182L1504.25.23m-615.55 1182L1508.83.23m-615.55 1182L1513.41.23m-615.55 1182L1517.99.23m-615.55 1182L1522.55.23M907 1182.23L1527.13.23m-615.58 1182L1531.68.23m-615.55 1182L1536.26.23m-615.51 1182L1540.88.23m-615.55 1182L1545.46.23m-615.55 1182L1550.04.23m-615.55 1182L1554.62.23m-615.55 1182L1559.19.23m-615.55 1182L1563.77.23m-615.55 1182L1568.35.23m-615.55 1182L1572.93.23m-615.55 1182L1577.55.23M962 1182.23L1582.13.23m-615.58 1182L1586.68.23m-615.55 1182L1591.25.23m-615.55 1182L1595.83.23m-615.55 1182L1600.41.23m-615.56 1182L1604.98.23m-615.55 1182L1609.55.23M994 1182.23L1614.13.23m-615.58 1182L1618.68.23m-615.55 1182L1623.26.23m-615.56 1182L1627.83.23m-615.55 1182L1632.45.23m-615.55 1182L1637.03.23m-615.55 1182L1641.61.23m-615.55 1182L1646.19.23m-615.55 1182L1650.77.23m-615.55 1182L1655.35.23m-615.55 1182L1659.92.23m-615.55 1182L1664.55.23m-615.6 1182L1669.08.23m-615.53 1182L1673.68.23m-615.55 1182L1678.26.23m-615.55 1182L1682.84.23m-615.55 1182L1687.42.23m-615.57 1182L1691.97.23m-615.55 1182L1696.55.23m-615.55 1182L1701.13.23m-615.58 1182L1705.68.23m-615.55 1182L1710.26.23m-615.55 1182L1714.84.23m-615.55 1182L1719.42.23m-615.55 1182L1724 .23m-615.55 1182L1728.57.23m-615.52 1182L1733.18.23m-615.55 1182L1737.76.23m-615.55 1182L1742.34.23m-615.55 1182L1746.92.23m-615.55 1182L1751.55.23m-615.6 1182L1756.08.23m-615.53 1182L1760.67.23m-615.55 1182L1765.25.23m-615.55 1182L1769.83.23m-615.55 1182L1774.41.23m-615.55 1182L1778.99.23m-615.55 1182L1783.55.23m-615.55 1182L1788.13.23m-615.58 1182L1792.68.23m-615.53 1182L1797.28.23m-615.55 1182L1801.86.23m-615.55 1182L1806.44.23m-615.55 1182L1811.02.23m-615.55 1182L1815.6.23m-615.55 1182L1820.18.23m-615.55 1182L1824.76.23m-615.55 1182L1829.33.23m-615.55 1182L1833.91.23m-615.55 1182L1838.49.23m-615.55 1182L1843.07.23m-615.52 1182L1847.68.23m-615.55 1182L1852.26.23m-615.55 1182L1856.84.23m-615.55 1182L1861.41.23m-615.55 1182L1865.99.23m-615.55 1182L1870.55.23m-615.55 1182L1875.13.23m-615.58 1182L1879.68.23m-615.53 1182L1884.28.23m-615.55 1182L1888.86.23m-615.55 1182L1893.44.23m-615.55 1182L1898.01.23m-615.55 1182L1902.55.23m-615.55 1182L1907.13.23m-615.55 1182L1911.71.23m-615.55 1182L1916.29.23m-615.55 1182L1920.87.23m-615.55 1182L1925.45.23m-615.55 1182L1930.02.23m-615.47 1182L1934.68.23m-615.55 1182L1939.26.23m-615.55 1182L1943.84.23m-615.59 1182L1948.38.23m-615.55 1182L1952.96.23m-615.55 1182L1957.55.23m-615.55 1182L1962.13.23m-615.58 1182L1966.68.23m-615.55 1182L1971.26.23m-615.55 1182L1975.84.23m-615.55 1182L1980.42.23m-615.55 1182L1985 .23m-615.55 1182l620.1-1182m-615.55 1182L1994.13.23m-615.55 1182L1998.7.23m-615.55 1182L2003.28.23m-615.55 1182L2007.86.23m-615.51 1182L2012.48.23m-615.55 1182L2017.06.23m-615.51 1182L2021.68.23m-615.55 1182L2026.26.23m-615.55 1182L2030.83.23m-615.55 1182L2035.41.23m-615.55 1182L2039.99.23m-615.55 1182L2044.55.23m-615.55 1182L2049.13.23m-615.58 1182L2053.68.23m-615.55 1182L2058.26.23m-615.55 1182L2062.84.23m-615.55 1182L2067.41.23m-615.55 1182L2071.99.23m-615.54 1182l620.1-1182m-615.55 1182L2081.13.23m-615.55 1182L2085.71.23m-615.55 1182L2090.29.23m-615.55 1182L2094.87.23m-615.52 1182L2099.47.23m-615.55 1182L2104.05.23m-615.5 1182L2108.68.23m-615.55 1182L2113.26.23m-615.55 1182L2117.84.23m-615.55 1182L2122.42.23m-615.55 1182L2127 .23m-615.55 1182l620.1-1182m-615.56 1182L2136.12.23m-615.57 1182L2140.68.23m-615.55 1182L2145.26.23m-615.55 1182L2149.84.23m-615.55 1182L2154.42.23m-615.55 1182L2159 .23m-615.55 1182l620.1-1182m-615.55 1182L2168.12.23m-615.55 1182L2172.7.23m-615.55 1182L2177.28.23m-615.55 1182L2181.86.23m-615.55 1182L2186.44.23m-615.55 1182L2191.02.23m-615.47 1182L2195.68.23m-615.55 1182L2200.25.23m-615.6 1182L2204.78.23m-615.55 1182L2209.36.23m-615.55 1182L2213.94.23m-615.55 1182L2218.55.23m-615.55 1182L2223.13.23m-615.58 1182L2227.68.23m-615.55 1182L2232.26.23m-615.55 1182L2236.83.23m-615.55 1182L2241.41.23m-615.55 1182L2245.99.23m-615.55 1182L2250.55.23m-615.55 1182L2255.13.23m-615.55 1182L2259.71.23m-615.55 1182L2264.29.23m-615.55 1182L2268.86.23m-615.55 1182L2273.44.23m-615.55 1182L2278.02.23m-615.55 1182L2282.6.23m-615.55 1182L2287.18.23m-615.53 1182L2291.78.23m-615.55 1182L2296.36.23m-615.55 1182L2300.94.23m-615.56 1182L2305.55.23m-615.55 1182L2310.13.23m-615.58 1182L2314.68.23m-615.55 1182L2319.26.23m-615.55 1182L2323.84.23m-615.55 1182L2328.42.23m-615.55 1182L2333 .23m-615.55 1182l620.1-1182m-615.55 1182L2342.13.23m-615.58 1182L2346.68.23m-615.55 1182L2351.26.23m-615.55 1182L2355.84.23m-615.55 1182L2360.42.23m-615.55 1182L2365 .23m-615.55 1182L2369.57.23m-615.55 1182L2374.15.23m-615.55 1182L2378.73.23m-615.55 1182L2383.31.23m-615.55 1182L2387.89.23m-615.55 1182L2392.55.23m-615.55 1182L2397.13.23m-615.58 1182L2401.68.23m-615.55 1182L2406.25.23m-615.55 1182L2410.83.23m-615.55 1182L2415.41.23m-615.55 1182L2419.99.23m-615.55 1182L2424.55.23m-615.55 1182L2429.13.23m-615.58 1182L2433.68.23m-615.55 1182L2438.25.23m-615.55 1182L2442.83.23m-615.55 1182L2447.41.23m-615.55 1182L2451.99.23m-615.55 1182L2456.57.23m-615.55 1182L2461.15.23m-615.55 1182L2465.73.23m-615.55 1182L2470.31.23m-615.56 1182L2474.88.23m-615.55 1182L2479.55.23m-615.55 1182L2484.13.23m-615.58 1182L2488.68.23m-615.55 1182L2493.26.23m-615.55 1182L2497.84.23m-615.55 1182L2502.42.23m-615.55 1182L2506.99.23m-615.55 1182L2511.55.23m-615.55 1182L2516.13.23m-615.58 1182L2520.68.23m-615.55 1182L2525.26.23m-615.55 1182L2529.84.23m-615.55 1182L2534.42.23m-615.55 1182L2538.99.23m-615.55 1182L2543.57.23m-615.55 1182L2548.15.23m-615.55 1182L2552.73.23m-615.55 1182L2557.31.23m-615.55 1182L2561.89.23m-615.55 1182L2566.55.23m-615.55 1182L2571.13.23m-615.58 1182L2575.67.23m-615.55 1182L2580.25.23m-615.55 1182L2584.83.23m-615.55 1182L2589.41.23m-615.55 1182L2593.99.23m-615.55 1182L2598.55.23m-615.55 1182L2603.13.23m-615.58 1182L2607.67.23m-615.55 1182L2612.25.23m-615.55 1182L2616.83.23m-615.55 1182L2621.41.23m-615.55 1182L2625.99.23m-615.55 1182L2630.57.23m-615.55 1182L2635.15.23m-615.55 1182L2639.73.23m-615.56 1182L2644.3.23m-615.55 1182L2648.88.23m-615.55 1182L2653.46.23m-615.55 1182L2658.04.23m-615.49 1182L2662.68.23m-615.55 1182L2667.26.23m-615.55 1182L2671.84.23m-615.55 1182L2676.41.23m-615.55 1182L2680.99.23m-615.55 1182L2685.55.23m-615.55 1182L2690.13.23m-615.58 1182L2694.68.23m-615.55 1182L2699.26.23m-615.55 1182L2703.84.23m-615.55 1182L2708.41.23m-615.55 1182L2712.99.23m-615.55 1182L2717.55.23m-615.55 1182L2722.13.23m-615.55 1182L2726.71.23m-615.55 1182L2731.29.23m-615.55 1182L2735.87.23m-615.55 1182L2740.45.23m-615.55 1182L2745.02.23m-615.47 1182L2749.68.23m-615.55 1182L2754.26.23m-615.55 1182L2758.84.23m-615.55 1182L2763.42.23m-615.55 1182L2768 .23m-615.55 1182l620.1-1182m-615.55 1182L2777.12.23m-615.57 1182L2781.68.23m-615.55 1182L2786.26.23m-615.55 1182L2790.84.23m-615.55 1182L2795.42.23m-615.55 1182L2800 .23m-615.55 1182l620.1-1182m-615.55 1182L2809.13.23m-615.56 1182L2813.7.23m-615.55 1182L2818.28.23m-615.55 1182L2822.86.23m-615.55 1182L2827.44.23m-615.55 1182L2832.02.23m-615.47 1182L2836.68.23m-615.55 1182L2841.26.23m-615.55 1182L2845.83.23m-615.55 1182L2850.41.23m-615.55 1182L2854.99.23m-615.55 1182L2859.55.23m-615.55 1182L2864.13.23m-615.58 1182L2868.68.23m-615.55 1182L2873.26.23m-615.55 1182L2877.83.23m-615.55 1182L2882.41.23m-615.55 1182L2886.99.23m-615.55 1182L2891.55.23m-615.55 1182L2896.13.23m-615.55 1182L2900.71.23m-615.55 1182L2905.29.23m-615.55 1182L2909.87.23m-615.55 1182L2914.44.23" fill="none" stroke="#a58f54" stroke-miterlimit="10"/></g></svg>