<svg data-name="Layer 1" xmlns="http://www.w3.org/2000/svg" viewBox="0 0 248.52 252"><title>safari-pinned-tab</title><path d="M132.03 118.23s-7.63-45.73 48.86-40.35c-4.08 43.39-48.86 40.35-48.86 40.35zm-3.25-41.08c1.27-7.49 2.64-11.85 7.52-15.33a16.06 16.06 0 0 0 6.78-13.13h-.07l-1-44.94c0-2.08-.7-3.77-2.78-3.77s-2.83 1.69-2.83 3.77L135.48 45a3.715 3.715 0 1 1-7.43 0l-1-41.12c0-2.07-.67-3.84-2.72-3.86a.15.15 0 0 0-.07-.02c-2.06.06-2.79 1.7-2.79 3.75L120.52 45a3.71 3.71 0 0 1-3.71 3.71A3.71 3.71 0 0 1 113.1 45l-1-41.22c0-2.08-.73-3.77-2.81-3.77s-2.82 1.69-2.82 3.77l-.95 45a3.55 3.55 0 0 0 .09.43 16.09 16.09 0 0 0 6.65 12.5c4.88 3.58 6.24 7.3 7.64 15.4s4.36 25.79 4.36 25.79 3.24-18.25 4.52-25.74zm119.74 50.58A124.26 124.26 0 1 1 90.26 8.19l.38-.1v9.34A115.21 115.21 0 0 0 10.46 146.5a956.79 956.79 0 0 1 110-6.76v29a2.11 2.11 0 0 1-.16.81 96.4 96.4 0 0 0-22.83 3.32 7.73 7.73 0 0 0-5.62 7.47v2.15h.09v22.92c0 6.5 1.71 10.65 3.82 10.65s3.82-4.26 3.82-10.65v-20a5 5 0 0 1 5-5h1.33a5 5 0 0 1 5 5v20c0 6.5 1.71 10.65 3.82 10.65s3.82-4.26 3.82-10.65v-21.26a5 5 0 0 1 5-5h1.33a5 5 0 0 1 5 5v21.26c0 6.5 1.71 10.65 3.82 10.65s3.82-4.26 3.82-10.65v-20a5 5 0 0 1 5-5h1.33a5 5 0 0 1 5 5v20c0 6.5 1.71 10.65 3.82 10.65s3.82-4.26 3.82-10.65v-22.92h.07v-2.15a7.73 7.73 0 0 0-5.61-7.46 96.07 96.07 0 0 0-22.69-3.32 2.06 2.06 0 0 1-.17-.81v-29a965.94 965.94 0 0 1 110 6.75A115.18 115.18 0 0 0 156.47 17V7.81a123.49 123.49 0 0 1 92.05 119.93zm-132-1.74s9.74-57.19-61.26-45.56c8.9 54.51 61.23 45.57 61.23 45.57z" fill="#231f20"/></svg>